<svg height="512pt" viewBox="0 0 512 512" width="512pt" xmlns="http://www.w3.org/2000/svg"><path d="m512 135v302h-15c0 33.078125-26.921875 60-60 60h-332c-49.628906 0-90-40.371094-90-90s40.371094-90 90-90h317v-257h15c5.128906 0 10.148438.519531 15 1.511719 34.191406 6.957031 60 37.257812 60 73.488281zm0 0" fill="#76e2f8"/><path d="m512 135v302h-15c0 33.078125-26.921875 60-60 60h-181v-180h166v-257h15c5.128906 0 10.148438.519531 15 1.511719 34.191406 6.957031 60 37.257812 60 73.488281zm0 0" fill="#4bb9ec"/><path d="m512 437c0 41.351562-33.640625 75-75 75h-332c-57.898438 0-105-47.101562-105-105v-302c0-57.898438 47.101562-105 105-105h347v332h-347c-41.351562 0-75 33.640625-75 75 0 41.351562 33.648438 75 75 75h332c24.808594 0 45-20.191406 45-45s-20.191406-45-45-45h-332c-8.269531 0-15 6.730469-15 15s6.730469 15 15 15h347v30h-347c-24.808594 0-45-20.191406-45-45s20.191406-45 45-45h332c41.359375 0 75 33.648438 75 75zm0 0" fill="#a8ebfa"/><g fill="#76e2f8"><path d="m256 0h196v332h-196zm0 0"/><path d="m256 422h196v30h-196zm0 0"/><path d="m512 437c0 41.351562-33.640625 75-75 75h-181v-30h181c24.808594 0 45-20.191406 45-45s-20.191406-45-45-45h-181v-30h181c41.359375 0 75 33.648438 75 75zm0 0"/></g></svg>