<svg id="Capa_1" enable-background="new 0 0 513.523 513.523" height="512" viewBox="0 0 513.523 513.523" width="512" xmlns="http://www.w3.org/2000/svg"><g><path d="m269.898.753c-16.459 0-198.081 0-195 0-24.814 0-45 20.186-45 45v15h30v-15c0-8.276 6.724-15 15-15h105v90h30v-90h60z" fill="#fff9e5"/><path d="m209.898 30.753h60v-30c-6.484 0-38.65 0-75 0v120h15z" fill="#fff9e5"/><g><path d="m239.898 180.753h-90v-90h90z" fill="#fff9e5"/></g><path d="m194.898 90.753h45v90h-45z" fill="#fff9e5"/><g><path d="m254.898 420.753h-165v-195c0-41.353 33.647-75 75-75h60c41.353 0 75 33.647 75 75v94.863l-12.788-2.813c7.985 30.62 16.681 34.812 42.964 69.346l-23.438 4.526c-6.764 1.309-23.453 5.471-45.073 29.048z" fill="#fff9e5"/></g><path d="m194.898 420.753h60l6.665-.029c21.621-23.577 38.309-27.74 45.073-29.048l23.438-4.526c-26.283-34.536-34.979-38.727-42.964-69.346l12.788 2.813v-94.863c0-41.353-33.647-75-75-75h-30z" fill="#f6edce"/><g id="Body_Lotion_1_"><g><path d="m45.015 195.753c-24.759 0-44.864-19.948-45.015-44.722-.172-25.037 37.15-75.647 44.429-86.675 8.796 12.953 45.401 61.298 45.571 86.104v.015c.146 24.785-19.907 45.103-44.707 45.278-.087 0-.19 0-.278 0z" fill="#f6edce"/></g></g><g><path d="m373.364 213.094s-34.126 52.291-29.361 121.096c-31.928-33.235-92.625-50.406-92.625-50.406s17.158 60.885 50.984 93.159c-27.867 5.357-69.158 28.826-69.158 28.826s49.237 33.178 85.885 29.39c-12.054 8.928-22.933 47.67-22.933 47.67s40.207-7.061 62.207-26.027v55.966h30v-55.966c22 18.966 62.207 26.027 62.207 26.027s-10.879-38.743-22.933-47.67c36.648 3.788 85.885-29.39 85.885-29.39s-41.292-23.469-69.158-28.826c33.827-32.274 50.984-93.159 50.984-93.159s-60.697 17.171-92.625 50.406c4.767-68.805-29.359-121.096-29.359-121.096z" fill="#fff9e5"/><path d="m388.364 512.77v-55.966c22 18.966 62.207 26.027 62.207 26.027s-10.879-38.743-22.933-47.67c36.648 3.788 85.885-29.39 85.885-29.39s-41.292-23.469-69.158-28.826c33.827-32.274 50.984-93.159 50.984-93.159s-60.697 17.171-92.625 50.406c4.765-68.805-29.361-121.096-29.361-121.096v299.674z" fill="#f6edce"/></g></g></svg>