<svg height="480pt" viewBox="0 0 480 480" width="480pt" xmlns="http://www.w3.org/2000/svg"><path d="m480 135.769531c0-74.984375-60.785156-135.769531-135.769531-135.769531-36.007813 0-70.535157 14.304688-96 39.769531l-208.460938 208.460938c-25.464843 25.464843-39.769531 60-39.769531 96 0 74.984375 60.785156 135.769531 135.769531 135.769531 36.007813 0 70.535157-14.304688 96-39.769531l208.46875-208.46875c25.457031-25.457031 39.761719-59.992188 39.761719-95.992188zm0 0" fill="#f6edce"/><path d="m144 144 192 192 104.230469-104.230469c25.464843-25.464843 39.769531-59.992187 39.769531-96 0-74.984375-60.785156-135.769531-135.769531-135.769531-36.007813 0-70.535157 14.304688-96 39.769531zm0 0" fill="#fff9e5"/><path d="m344.230469 0c-36.007813 0-70.535157 14.304688-96 39.769531l-208.460938 208.460938c-20.625 20.625-33.769531 47.242187-38.082031 75.738281 37.039062 17.960938 78.511719 28.03125 122.3125 28.03125 156.847656 0 284-128.945312 284-288 0-17.128906-1.558594-33.878906-4.382812-50.183594-17.960938-8.761718-38.058594-13.816406-59.386719-13.816406zm0 0" fill="#f6edce"/><path d="m344.230469 0c-36.007813 0-70.535157 14.304688-96 39.769531l-104.230469 104.230469 150.398438 150.398438c68.976562-52.542969 113.601562-136.183594 113.601562-230.398438 0-17.128906-1.558594-33.878906-4.382812-50.183594-17.960938-8.761718-38.058594-13.816406-59.386719-13.816406zm0 0" fill="#fff9e5"/><g fill="#fff"><path d="m104 392c0 13.253906-10.746094 24-24 24s-24-10.746094-24-24 10.746094-24 24-24 24 10.746094 24 24zm0 0"/><path d="m136 296c0 22.089844-17.910156 40-40 40s-40-17.910156-40-40 17.910156-40 40-40 40 17.910156 40 40zm0 0"/><path d="m341.65625 293.65625-11.3125-11.3125 82.175781-82.175781c17.71875-17.71875 27.480469-41.289063 27.480469-66.34375 0-25.054688-9.761719-48.625-27.480469-66.34375l11.3125-11.3125c20.742188 20.742187 32.167969 48.328125 32.167969 77.65625s-11.425781 56.910156-32.167969 77.65625zm0 0"/></g></svg>