<svg id="Capa_1" enable-background="new 0 0 497 497" height="512" viewBox="0 0 497 497" width="512" xmlns="http://www.w3.org/2000/svg"><g id="_x3C_Group_x3E__11_"><path d="m482 159.585h-1.89c-47.417 0-93.522-15.492-131.362-44.067-27.888-21.06-62.608-33.55-100.249-33.55s-72.361 12.49-100.249 33.55c-37.839 28.575-81.945 44.067-129.362 44.067h-1.888c-8.284 0-15 6.716-15 15v25.896l8 50.508-7 45.529-1 25.896c0 8.284 6.716 12 15 12h1.89c47.417 0 91.522 15.492 129.362 44.067 27.888 21.06 62.608 33.55 100.249 33.55s72.361-12.49 100.249-33.55c37.839-28.575 83.945-44.067 131.362-44.067h1.888c8.284 0 15-6.716 15-15v-22.896l-10-43.232 10-52.806v-25.896c0-8.283-6.716-14.999-15-14.999z" fill="#f6edce"/><path d="m497 297.415c0 8.284-6.716 15-15 15h-1.89c-47.417 0-93.522 15.492-131.362 44.067-27.888 21.06-62.608 33.55-100.249 33.55-37.64 0-72.361-12.49-100.249-33.55-34.425-25.997-75.693-41.159-118.565-43.684-2.635-.155-4.687-2.345-4.687-4.984v-138.229c0-4.02 1.59-7.661 4.164-10.354-4.079.23-8.171.354-12.274.354h-1.888c-8.284 0-15 6.716-15 15v25.896l10 47.274-10 48.66v26c0 8.284 6.716 15 15 15h1.89c47.417 0 93.522 15.492 131.362 44.067 27.888 21.06 62.608 33.55 100.249 33.55 1.771 0 3.533-.037 5.29-.091.312-.01.624-.018.935-.029 1.706-.063 3.405-.151 5.097-.265.275-.019.549-.04.824-.06 3.578-.258 7.125-.629 10.637-1.109.17-.023.341-.045.511-.069 1.776-.249 3.542-.525 5.3-.829.105-.018.21-.038.315-.056 3.653-.64 7.265-1.398 10.831-2.271.024-.006.049-.012.073-.018 22.233-5.456 42.715-15.37 60.434-28.752 29.775-22.485 64.669-36.863 101.292-41.973 3.381-.472 6.778-.859 10.186-1.173.446-.041.892-.085 1.339-.123.791-.068 1.582-.127 2.374-.187.604-.045 1.208-.089 1.812-.129.709-.047 1.419-.09 2.129-.13.712-.04 1.425-.076 2.138-.109.629-.029 1.257-.059 1.887-.083.858-.032 1.718-.057 2.577-.079.501-.013 1.002-.03 1.503-.04 1.373-.026 2.748-.042 4.124-.042h1.891c.527 0 1.047-.028 1.56-.081.123-.013.241-.04.363-.055.39-.05.779-.104 1.159-.183.107-.022.209-.056.316-.081.392-.091.781-.188 1.16-.309.074-.024.145-.055.219-.08.407-.137.809-.285 1.199-.455.041-.018.08-.04.122-.059.419-.187.829-.39 1.227-.613.015-.008.028-.018.043-.026 1.288-.728 2.454-1.641 3.469-2.703 2.574-2.693 4.164-6.335 4.164-10.354v-25.001z" fill="#f6edce"/><path d="m387.272 301.085c-1.427 3.73 1.844 7.566 5.739 6.688 32.776-7.387 68.099-11.254 103.988-11.254v-30.66l-10-16.976 10-17.74v-30.662c-35.889 0-71.213-3.867-103.989-11.255-3.896-.878-7.166 2.958-5.739 6.688 4.727 12.357 9.729 30.444 9.729 52.586s-5.001 40.229-9.728 52.585z" fill="#fff9e5"/><path d="m109.753 195.868c1.421-3.711-1.879-7.517-5.755-6.643-24.952 5.624-51.379 9.209-78.409 10.6l-15.589 10.656v76.038l15 10.627c27.236 1.369 53.868 4.965 79.001 10.63 3.89.877 7.168-2.946 5.744-6.671-4.921-12.874-10.163-31.996-9.719-55.401.396-20.772 5.135-37.842 9.727-49.836z" fill="#fff9e5"/><g><path d="m25 199.845c-8.286.417-16.627.636-25 .636v30.661l20 16.613-20 18.103v30.661c8.373 0 16.713.219 25 .636z" fill="#fff9e5"/></g><path d="m69.043 231.209c.733-2.132-1.007-4.289-3.24-3.975-10.548 1.484-26.644 2.558-40.804 3.201l-5 .708v34.715l5 .708c14.162.643 30.26 1.718 40.808 3.202 2.213.311 3.982-1.814 3.254-3.927-1.575-4.571-3.047-10.853-2.904-18.351.125-6.558 1.448-12.095 2.886-16.281z" fill="#f6edce"/><path d="m25 230.434c-10.332.469-19.637.709-25 .709v34.715c5.363 0 14.668.24 25 .709z" fill="#f6edce"/><path d="m427.957 265.792c-.733 2.132 1.007 4.289 3.24 3.975 18.246-2.567 53.091-3.909 65.804-3.909v-34.715c-12.713 0-47.563-1.343-65.808-3.91-2.213-.311-3.982 1.814-3.254 3.927 1.575 4.571 3.047 10.853 2.904 18.351-.125 6.559-1.448 12.096-2.886 16.281z" fill="#f6edce"/><path d="m353.245 248.5c0-57.849-46.896-104.745-104.745-104.745-25.104 0-48.146 8.831-66.187 23.557-23.532 19.207-35.558 48.443-35.558 81.188 0 57.849 43.896 101.745 101.745 101.745 32.745 0 61.98-12.025 81.188-35.558 14.725-18.041 23.557-41.083 23.557-66.187z" fill="#fff9e5"/><path d="m258.5 338.245c-57.849 0-99.745-41.896-99.745-99.745 0-25.104 8.836-53.142 23.561-71.184-23.532 19.207-38.561 48.439-38.561 81.184 0 57.849 46.896 104.745 104.745 104.745 32.745 0 61.976-15.029 81.184-38.561-18.042 14.725-46.08 23.561-71.184 23.561z" fill="#fff9e5"/><path d="m297.585 248.5c0-27.109-21.976-49.085-49.085-49.085-9.714 0-18.769 2.822-26.39 7.691-13.647 8.718-19.695 24-19.695 41.395 0 27.109 18.976 46.085 46.085 46.085 17.395 0 32.676-6.048 41.395-19.695 4.868-7.622 7.69-16.677 7.69-26.391z" fill="#f6edce"/><g fill="#f6edce"><path d="m258.266 284.351c-27.109 0-45.957-18.508-45.957-45.617 0-9.714 4.94-23.996 9.809-31.617-13.646 8.718-22.703 23.988-22.703 41.383 0 27.109 21.976 49.085 49.085 49.085 17.395 0 32.664-9.056 41.383-22.703-7.622 4.869-21.903 9.469-31.617 9.469z"/><circle cx="248.5" cy="248.5" r="19.085"/></g></g></svg>