<?xml version="1.0" encoding="iso-8859-1"?>
<!-- Generator: Adobe Illustrator 19.0.0, SVG Export Plug-In . SVG Version: 6.00 Build 0)  -->
<svg version="1.1" id="Capa_1" xmlns="http://www.w3.org/2000/svg" xmlns:xlink="http://www.w3.org/1999/xlink" x="0px" y="0px"
	 viewBox="0 0 512 512" style="enable-background:new 0 0 512 512;" xml:space="preserve">
<path style="fill:#f6edce;" d="M461.262,101.906l-52.298-51.839l37.498-46.226c3.207-3.967,8.515-5.066,11.251-2.33l52.495,52.495
	c2.769,2.769,1.606,8.158-2.447,11.345L461.262,101.906z"/>
<path style="fill:#f6edce;" d="M498.827,42.626L498.827,42.626c-21.456,16.868-52.118,15.107-71.502-4.106l-4.985-4.942
	l-13.376,16.489l52.298,51.839L507.76,65.35c4.053-3.186,5.216-8.576,2.447-11.345L498.827,42.626z"/>
<path style="fill:#f6edce;" d="M444.036,162.679L349.04,67.683c-6.013-6.013-6.013-15.761,0-21.774l17.698-17.698
	c6.013-6.013,15.761-6.013,21.774,0l94.996,94.996c6.013,6.013,6.013,15.761,0,21.774l-17.698,17.698
	C459.797,168.691,450.049,168.691,444.036,162.679z"/>
<g>
	<path style="fill:#f6edce;" d="M483.507,123.207l-20.599-20.599c6.012,6.013,6.012,15.761-0.001,21.773l-17.698,17.698
		c-6.013,6.013-15.761,6.013-21.774,0l20.6,20.6c6.013,6.013,15.761,6.013,21.774,0l17.698-17.698
		C489.52,138.968,489.52,129.22,483.507,123.207z"/>
	<polygon style="fill:f6edce;" points="349.04,67.683 423.436,142.079 349.039,67.682 	"/>
</g>
<path style="fill:#f6edce;" d="M347.108,65.751c7.801,7.801,7.801,20.448,0,28.249l0,0c-6.885,6.885-17.423,8.374-26.048,3.858
	c-81.704-42.77-184.685-30.571-254.248,36.603c-87.458,84.456-88.897,226.798-3.091,312.932
	c85.716,86.042,224.953,86.143,310.794,0.302c69.582-69.582,82.692-174.247,39.336-257.053c-4.513-8.619-3.014-19.151,3.865-26.03
	l0.002-0.002c7.801-7.801,20.448-7.801,28.249,0"/>
<path style="fill:#f6edce;" d="M417.716,164.611l0.002-0.002c7.801-7.801,20.448-7.801,28.249,0l-31.327-31.327
	c-7.365,0.992-14.887,4.17-18.967,8.249l-6.002,4.404c-6.879,6.879-12.623,14.296-8.11,22.915
	c43.356,82.806,30.246,187.471-39.336,257.053c-70.773,70.773-177.837,83.116-261.283,37.052
	c86.23,70.127,213.266,65.045,293.572-15.262c69.582-69.582,82.691-174.247,39.336-257.053
	C409.339,182.023,410.837,171.491,417.716,164.611z"/>
<circle style="fill:#f6edce;" cx="223.12" cy="294.98" r="198.48"/>
<path style="fill:#f6edce;" d="M342.226,425.904c-43.859,43.859-101.657,65.269-159.133,64.254
	c11.722,2.157,23.801,3.294,36.147,3.294c109.615,0,198.476-88.861,198.476-198.476c0-31.708-7.448-61.673-20.671-88.259
	C419.815,281.756,401.55,366.58,342.226,425.904z"/>
<circle style="fill:#f6edce;" cx="202.31" cy="260.89" r="147.46"/>
<path style="fill:#fff9e5;" d="M41.639,331.784c-0.698-3.208,2.675-5.767,5.543-4.17c12.081,6.725,28.401,14.358,48.467,19.933
	c66.412,18.45,123.722,0.416,134.183-3.036c54.315-17.923,62.357-44.23,117.844-53.34c19.684-3.232,36.624-2.869,48.556-1.874
	c1.954,0.163,3.466,1.796,3.467,3.757c0,0.012,0,0.023,0,0.035c0,100.023-81.085,181.108-181.108,181.108
	C131.849,474.197,59.363,413.213,41.639,331.784z"/>
<path style="fill:#fff9e5;" d="M395.581,331.784c0.698-3.208-2.675-5.767-5.543-4.17c-12.081,6.725-28.401,14.358-48.467,19.933
	c-66.412,18.45-123.722,0.416-134.183-3.036c-54.315-17.923-62.357-44.23-117.844-53.34c-19.684-3.232-36.624-2.869-48.556-1.874
	c-1.954,0.163-3.466,1.796-3.467,3.757c0,0.012,0,0.023,0,0.035c0,100.023,81.085,181.108,181.108,181.108
	C305.37,474.197,377.857,413.213,395.581,331.784z"/>
<g>
	<circle style="fill:#fff9e5;" cx="358.13" cy="245.87" r="20.237"/>
	<circle style="fill:#fff9e5;" cx="289.68" cy="168.05" r="17.18"/>
	<circle style="fill:#fff9e5;" cx="244.4" cy="280.39" r="24.395"/>
</g>
<g>
</g>
<g>
</g>
<g>
</g>
<g>
</g>
<g>
</g>
<g>
</g>
<g>
</g>
<g>
</g>
<g>
</g>
<g>
</g>
<g>
</g>
<g>
</g>
<g>
</g>
<g>
</g>
<g>
</g>
</svg>
