<svg id="Layer_1_1_" enable-background="new 0 0 64 64" height="512" viewBox="0 0 64 64" width="512" xmlns="http://www.w3.org/2000/svg"><path d="m22 50h20v12h-20z" fill="#fff9e5"/><path d="m22.879 19.965c9.379-3.917 24.358-10.745 24.736-10.918-2.963-3.585-7.72-6.047-15.237-6.047-28 0-18.816 33.997-18.816 33.997s-.237-.829-.145-2.132c0-.001-.001-.002-.001-.003 0 .001.001.002.001.003.269-3.81 1.774-11.69 9.462-14.9z" fill="#fff9e5"/><path d="m30.637 16.116c-2.808 1.228-5.582 2.424-7.994 3.431-6.075 2.537-8.388 7.915-9.257 12.04-.407 1.935-.285 3.94.301 5.829l.017.055c1.632 5.261 4.512 10.073 8.497 13.875 1.178 1.124 2.481 2.168 3.967 2.859 4.923 2.291 10.43 1.397 14.281-1.861 4.422-3.742 7.744-8.717 9.505-14.236.052-.163.102-.32.15-.473.499-1.578.619-3.259.275-4.877-2.928-13.763-19.741-16.642-19.742-16.642z" fill="#fff9e5"/><path d="m47.614 9.047c-.283.129-8.766 3.996-16.947 7.575.002 0 18.461 3.161 19.602 18.813.037.508.056 1.029.056 1.563.001-.001 5.362-18.183-2.711-27.951z" fill="#f6edce"/><path d="m14.874 35.456c1.18 4.305 4.281 8.805 7.004 12.296 2.447 3.137 5.903 6.748 10.201 6.748 4.075 0 7.331-3.215 9.676-6.207 2.637-3.364 5.399-7.602 6.728-11.678 1.568-4.811-.418-10.097-5.007-12.391l-11.444-6.446s-11.924 5.962-11.927 5.963c-4.276 2.137-6.494 7.103-5.231 11.715zm26.26-4.026c2.514 0 4.551 1.019 4.551 2.276s-2.038 2.276-4.551 2.276-4.551-1.019-4.551-2.276 2.038-2.276 4.551-2.276zm-9.102 13.653c2.514 0 4.551 1.019 4.551 2.276s-2.038 2.276-4.551 2.276-4.551-1.019-4.551-2.276 2.038-2.276 4.551-2.276zm-4.551-11.378c0 1.257-2.038 2.276-4.551 2.276s-4.551-1.019-4.551-2.276 2.038-2.276 4.551-2.276 4.551 1.02 4.551 2.276z" fill="#f6edce"/><g fill="#f6edce"><path d="m12.801 20.828s1-5 7-7 10-2 11-4-2-4-4-2c-4 4-14 5-14 13z"/><path d="m44.436 16.512c-.43-1.126 2.609-1.796 6.006-2.483-.405-1.079-.899-2.122-1.497-3.106-2.647 1.2-8.401 3.797-14.002 6.247.001 0 12.846 2.202 16.816 12.268.217-1.905.354-4.038.299-6.25-3.157-2.006-6.536-3.835-7.622-6.676z"/><path d="m22.879 19.965c8.615-3.598 21.944-9.648 24.354-10.744.061-.127.132-.25.21-.369-2.536-2.966-6.344-5.124-11.986-5.695 3.727 1.34 8.332 3.465 5.031 4.915-4.914 2.159-25.132 8.053-28.436 15.373-.349 7.207 1.51 13.553 1.51 13.553s-.237-.829-.145-2.132c.269-3.811 1.774-11.691 9.462-14.901z"/></g></svg>