<svg id="Capa_1" enable-background="new 0 0 512 512" height="512" viewBox="0 0 512 512" width="512" xmlns="http://www.w3.org/2000/svg"><g><g><path d="m366.24 361.38h-219.7c-7.061 0-13.165-4.924-14.66-11.824l-52.21-241c-.96-4.433.137-9.062 2.984-12.593 2.848-3.531 7.14-5.583 11.676-5.583h323.55c4.53 0 8.817 2.047 11.665 5.57 2.848 3.522 3.951 8.144 3.002 12.573l-51.64 241c-1.481 6.916-7.593 11.857-14.667 11.857z" fill="#fff9e5"/></g><path d="m417.88 90.38h-161.38v271h109.74c7.073 0 13.186-4.941 14.667-11.857l51.64-241c.949-4.429-.154-9.05-3.002-12.573s-7.135-5.57-11.665-5.57z" fill="#fff9e5"/><g><path d="m346.875 512h-49.875l-40.5-15-40.5 15h-49.875c-8.284 0-15-6.716-15-15v-60.25c0-8.284 6.716-15 15-15h180.75c8.284 0 15 6.716 15 15v60.25c0 8.284-6.716 15-15 15z" fill="#fff9e5"/></g><g><path d="m297 512h-81v-90.25h81z" fill="#a98748"/></g><path d="m346.875 421.75h-90.375v75.25l40.5 15h49.875c8.284 0 15-6.716 15-15v-60.25c0-8.284-6.716-15-15-15z" fill="#fff9e5"/><path d="m256.5 421.75h40.5v90.25h-40.5z" fill="#fff9e5"/><g><path d="m286.625 271h-61.25c-24.882 0-45.125-20.243-45.125-45.125s20.243-45.125 45.125-45.125h61.25c24.882 0 45.125 20.243 45.125 45.125s-20.243 45.125-45.125 45.125z" fill="#a98748"/></g><g><path d="m79.67 108.556-19.58-90.38c-.96-4.433.137-9.062 2.984-12.593 2.848-3.531 7.14-5.583 11.676-5.583h362.5c4.53 0 8.817 2.047 11.665 5.57s3.951 8.144 3.002 12.574l-19.37 90.38z" fill="#f6edce"/></g><path d="m437.25 0h-180.75v108.54l176.047-.016 19.37-90.38c.949-4.43-.154-9.051-3.002-12.574-2.848-3.523-7.135-5.57-11.665-5.57z" fill="#f6edce"/><path d="m286.625 180.75h-30.125v90.25h30.125c24.882 0 45.125-20.243 45.125-45.125s-20.243-45.125-45.125-45.125z" fill="#a98748"/><g><path d="m151.125 438.38-19.245-88.824 249.027-.034-19.032 88.839z" fill="#fff9e5"/></g><path d="m256.5 438.37 105.375-.01 19.032-88.838-124.407.017z" fill="#fff9e5"/></g></svg>