<svg id="Capa_1" enable-background="new 0 0 512 512" height="512" viewBox="0 0 512 512" width="512" xmlns="http://www.w3.org/2000/svg" xmlns:xlink="http://www.w3.org/1999/xlink"><linearGradient id="SVGID_1_" gradientUnits="userSpaceOnUse" x1="256" x2="256" y1="406" y2="106"><stop offset="0" stop-color="#fd3a84"/><stop offset="1" stop-color="#ffa68d"/></linearGradient><linearGradient id="SVGID_2_" gradientUnits="userSpaceOnUse" x1="256" x2="256" y1="226" y2="166"><stop offset="0" stop-color="#ffc2cc"/><stop offset="1" stop-color="#fff2f4"/></linearGradient><g id="Panties_2_"><g><g><path d="m497 106h-482c-8.291 0-15 6.709-15 15v90c0 8.291 6.709 15 15 15h31c90.967 0 165 74.019 165 165 0 8.291 6.709 15 15 15h60c8.291 0 15-6.709 15-15 0-90.981 74.033-165 165-165h31c8.291 0 15-6.709 15-15v-90c0-8.291-6.709-15-15-15z" fill="url(#SVGID_1_)"/></g></g><g><g><path d="m296.605 200.395-30-30c-5.859-5.859-15.352-5.859-21.211 0l-30 30c-5.859 5.859-5.859 15.352 0 21.211s15.352 5.859 21.211 0l19.395-19.395 19.395 19.395c5.86 5.859 15.352 5.859 21.211 0 5.859-5.86 5.859-15.352-.001-21.211z" fill="url(#SVGID_2_)"/></g></g></g></svg>