<svg height="512" viewBox="0 0 128 128" width="512" xmlns="http://www.w3.org/2000/svg"><g><path d="m93.861 40.6-14.123-24.466a5.807 5.807 0 0 1 -.286-5.459 6.177 6.177 0 1 0 -11.7-2.94 5.89 5.89 0 0 1 -3.02 4.835l-48.182 27.815a5.891 5.891 0 0 1 -5.7.2 6.178 6.178 0 1 0 -3.304 11.605 5.809 5.809 0 0 1 4.585 2.977l14.124 24.463a5.807 5.807 0 0 1 .285 5.459 6.177 6.177 0 1 0 11.706 2.94 5.887 5.887 0 0 1 3.019-4.835l48.178-27.815a5.889 5.889 0 0 1 5.7-.2 6.178 6.178 0 1 0 3.306-11.607 5.808 5.808 0 0 1 -4.588-2.972z" fill="#fff9e5"/><g fill="#f6edce"><path d="m35.226 76.94a1.8 1.8 0 0 1 -.317-.029 1.751 1.751 0 0 1 -1.409-2.037l.152-.829a20.086 20.086 0 0 0 -13.715-22.755 1.75 1.75 0 1 1 1.049-3.339 23.591 23.591 0 0 1 16.114 26.724l-.152.829a1.751 1.751 0 0 1 -1.722 1.436z"/><path d="m123.88 73.392a6.177 6.177 0 0 0 -6.733-.579 5.889 5.889 0 0 1 -5.7-.2l-25.928-14.969-44.254 25.55a5.946 5.946 0 0 0 -2.965 4.287c.085.044.172.08.255.128l48.177 27.815a5.888 5.888 0 0 1 3.02 4.835 6.178 6.178 0 1 0 11.7-2.94 5.81 5.81 0 0 1 .286-5.459l14.131-24.46a5.809 5.809 0 0 1 4.585-2.977 6.175 6.175 0 0 0 3.426-11.028z"/></g></g></svg>