<svg id="Capa_1" enable-background="new 0 0 512 512" height="512" viewBox="0 0 512 512" width="512" xmlns="http://www.w3.org/2000/svg"><g><g><path d="m166.289 45.939-4.127-4.126c-8.798-8.799-20.497-13.645-32.941-13.645s-24.143 4.846-32.94 13.645c-8.799 8.798-13.644 20.497-13.644 32.94s4.845 24.141 13.643 32.939l4.172 4.172c8.467 59.682 8.512 120.125.135 179.807l-4.307 4.307c-18.162 18.163-18.162 47.717.001 65.879 8.798 8.799 20.497 13.644 32.94 13.644s24.141-4.845 32.94-13.644l3.175-3.175c34.049-4.398 101.669-6.604 131.979-6.604h.003l84.322-148.16-84.321-151.509c-30.134.001-97.269-2.161-131.03-6.47z" fill="#f6edce"/><path d="m495.003 292.625c-8.556-60.314-8.511-121.402.134-181.713l3.218-3.218c8.799-8.799 13.645-20.498 13.645-32.941 0-12.444-4.846-24.143-13.644-32.94-8.798-8.799-20.497-13.645-32.941-13.645s-24.142 4.846-32.939 13.644l-4.259 4.258c-33.26 4.164-101.506 6.338-130.895 6.339-.001 0-.002 0-.003 0v299.669c29.561 0 98.299 2.22 131.851 6.473l3.306 3.306c8.798 8.799 20.497 13.644 32.939 13.644 12.443 0 24.141-4.845 32.939-13.643 8.8-8.798 13.646-20.496 13.646-32.94s-4.846-24.142-13.644-32.939z" fill="#fff9e5"/></g><g><path d="m83.652 154.27-4.127-4.126c-8.798-8.799-20.497-13.645-32.941-13.645s-24.143 4.846-32.94 13.645c-8.799 8.797-13.644 20.495-13.644 32.939 0 12.443 4.845 24.141 13.643 32.939l4.172 4.172c8.467 59.682 8.512 120.125.135 179.807l-4.307 4.307c-18.162 18.163-18.162 47.717.001 65.879 8.798 8.799 20.497 13.644 32.94 13.644s24.141-4.845 32.94-13.644l3.175-3.175c34.049-4.398 101.669-6.604 131.979-6.604h.003l84.322-148.16-84.322-151.508c-30.133 0-97.269-2.162-131.029-6.47z" fill="#fff9e5"/><path d="m412.365 400.955c-8.556-60.314-8.511-121.402.134-181.713l3.218-3.218c8.799-8.798 13.645-20.497 13.645-32.94 0-12.444-4.846-24.143-13.644-32.94-8.798-8.799-20.497-13.645-32.941-13.645s-24.142 4.846-32.939 13.644l-4.259 4.258c-33.26 4.164-101.506 6.338-130.895 6.339-.001 0-.002 0-.003 0v299.669c29.561 0 98.299 2.22 131.851 6.473l3.306 3.306c8.798 8.799 20.497 13.644 32.939 13.644 12.443 0 24.141-4.845 32.939-13.643 8.799-8.798 13.645-20.497 13.645-32.941s-4.846-24.142-13.644-32.939z" fill="#f6edce"/></g></g></svg>