<svg id="Capa_1" enable-background="new 0 0 497 497" height="512" viewBox="0 0 497 497" width="512" xmlns="http://www.w3.org/2000/svg"><g><path d="m234.195 313.623-58.838-132.327c-8.155 4.303-15.903 9.69-23.069 16.142-16.456 25.536-35.652 59.453-35.652 119.707 0 14.962 10 57.913 10 57.913l72.464.285z" fill="#fff9e5"/><g fill="#a98748"><path d="m152.287 197.438c-27.014 24.323-45.652 63.991-45.652 119.707v57.834l20 .079c0-16.343 0-42.951 0-57.913 0-60.253 9.196-94.17 25.652-119.707z"/><path d="m175.521 228.554c-2.122 1.52-4.25 3.131-5.443 4.283-17.699 17.074-25.943 43.864-25.943 84.308v48.834c0 4.143 3.358 7.5 7.5 7.5s7.5-3.357 7.5-7.5v-48.834c0-33.802 5.952-56.433 18.673-70.717-1.242-5.715-1.985-11.657-2.287-17.874z"/><path d="m234.195 326.297s-15.122-1.392-25.245 3.487-17.073 14.914-17.074 26.512c-.001 7.251 2.716 13.892 7.223 19.047l159.652.628z"/></g><path d="m417.306 244.903c-3.223-11.886-14.524-22.152-40.108-35.052-4.298-2.167-14.134-6.746-14.134-6.746-5.849-2.662-12.26-5.446-19.275-8.383-1.601-15.099-6.019-31.739-15.012-34.124-10.22-2.71-35.918 15.359-47.836 15.359-3.395 0-13.7-2.131-21.482-3.796 0 0-13.83-2.752-16.592-3.093-22.973-2.836-46.557 1.171-67.51 12.228v40.355c0 38.027 14.054 66.115 58.838 91.971-15.086-.002-27.317 11.715-27.319 26.17-.002 14.456 12.226 26.178 27.311 26.178 13.335 0 124.564 10 124.564 10s15.653-16.704 36.23-55.067c3.094-5.767 28.335-53.838 22.325-76z" fill="#f6edce"/><path d="m351.531 244.611c1.343 0 2.702-.36 3.929-1.117 11.154-6.878 19.352-22.169 21.735-33.638-4.298-2.167-9-4.41-14.134-6.747-.144 1.269-.278 2.295-.392 2.939-1.468 8.331-7.879 20.235-15.083 24.678-3.526 2.174-4.622 6.795-2.447 10.32 1.418 2.299 3.876 3.565 6.392 3.565z" fill="#fff9e5"/><path d="m273.99 236.242c-1.658 0-3.326-.547-4.715-1.671-3.219-2.606-3.716-7.329-1.11-10.548 6.771-8.363 8.734-16.264 9.264-19.272.719-4.08 4.607-6.795 8.688-6.086 4.079.719 6.804 4.608 6.085 8.688-.91 5.164-3.728 15.423-12.378 26.108-1.482 1.831-3.649 2.781-5.834 2.781z" fill="#a98748"/><path d="m259.459 172.161s-6.982-1.507-8.339-1.774c-2.739-.538-5.494-.958-8.255-1.299-8.853 13.447-12.918 37.157-10.595 50.962.616 3.664 3.792 6.257 7.387 6.257.413 0 .832-.034 1.253-.104 4.084-.688 6.839-4.557 6.151-8.641-1.828-10.861 2.239-32.688 9.414-41.732.94-1.186 2.984-3.669 2.984-3.669z" fill="#f6edce"/><path d="m234.187 365.971c27.302-20 60.223-27.702 98.465-27.702s16.099 27.702 16.099 27.702l-6.454 8.537z" fill="#f6edce"/><path d="m301.737 393.741h161.257l34.006 103.259h-152.552s-42.711-4.001-42.711-103.259z" fill="#f6edce"/><path d="m344.015 429.385c-16.46 16.46-16.923 50.258.433 67.615h-89.002v-67.615s97.269-8.7 88.569 0z" fill="#f6edce"/><path d="m487 365.971c-60.651-60.651-158.986-60.651-219.637 0-42.096 42.096 11.167 56.305 47.698 61.059 4.765-5.848 35.216-27.241 72.129-26.576 36.911.665 52.195 8.931 109.81 66.546v-87.923c0-1.989-.786-3.893-2.193-5.299-2.363-2.363-6.023-6.024-7.807-7.807z" fill="#f6edce"/><path d="m439.385 409.385c-29.945-29.945-78.495-29.945-108.439 0-5.824 5.824-11.12 11.797-15.885 17.645 16.102 2.096 28.955 2.355 28.955 2.355 23.574-23.574 61.796-23.574 85.37 0 4.836 4.837 67.614 67.615 67.614 67.615v-30c-17.678-17.678-53.033-53.033-57.615-57.615z" fill="#f6edce"/><path d="m137.098 0h-129.598c-4.142 0-7.5 3.358-7.5 7.5v7.5s56.861 5.662 76.372 10 25.499 16.381 25.499 37.763l87.989-10c.001-29.14-23.622-52.763-52.762-52.763z" fill="#fff9e5"/><path d="m106.635 45.4c.074-16.776-13.503-30.4-30.263-30.4h-76.372v7.5c0 4.142 3.358 7.5 7.5 7.5h68.08c8.867 0 16.055 7.188 16.055 16.055v6.708c0 8.284 6.716 15 15 15h68.225c8.284 0 15-6.716 15-15h-75.725c-4.089 0-7.518-3.274-7.5-7.363z" fill="#fff9e5"/><path d="m106.635 212.844c-4.142 0-7.5-3.357-7.5-7.5v-107.58c0-4.143 3.358-7.5 7.5-7.5s7.5 3.357 7.5 7.5v107.58c0 4.143-3.358 7.5-7.5 7.5z" fill="#fff9e5"/><path d="m140.961 177.626c-4.142 0-7.5-3.357-7.5-7.5v-72.362c0-4.143 3.358-7.5 7.5-7.5s7.5 3.357 7.5 7.5v72.362c0 4.143-3.358 7.5-7.5 7.5z" fill="#fff9e5"/><path d="m175.285 156.833c-4.142 0-7.5-3.357-7.5-7.5v-51.569c0-4.143 3.358-7.5 7.5-7.5s7.5 3.357 7.5 7.5v51.569c0 4.143-3.358 7.5-7.5 7.5z" fill="#fff9e5"/><path d="m348.751 365.971h-328.751l-10 113.529c0 4.142 3.358 7.5 7.5 7.5h237.946c26.654 0 67.595-34.295 88.556-57.601 12.185-16.277 19.753-33.144 19.749-48.442-.002-8.279-6.721-14.986-15-14.986z" fill="#fff9e5"/><path d="m255.447 477h-227.947c-4.142 0-7.5-3.358-7.5-7.5v-103.529h-12.5c-4.142 0-7.5 3.358-7.5 7.5v116.029c0 4.142 3.358 7.5 7.5 7.5h247.946c33.226-13.554 67.676-39.711 88.556-67.601-20.96 23.306-61.901 47.601-88.555 47.601z" fill="#f6edce"/></g></svg> 