<svg id="Capa_1" enable-background="new 0 0 512 512" height="512" viewBox="0 0 512 512" width="512" xmlns="http://www.w3.org/2000/svg"><g><path d="m166 30.463c-13.682-18.378-35.38-30.463-60-30.463-41.353 0-75 33.647-75 75v106h30v-106c0-24.814 20.186-45 45-45s45 20.186 45 45v30h15 15v-30c0-16.732-5.7-32.045-15-44.537z" fill="#f6edce"/><path d="m181 75c0-16.732-5.7-32.045-15-44.537v74.537h15z" fill="#f6edce"/><path d="m451 331v106c0 24.814-20.186 45-45 45s-45-20.186-45-45v-30h-15-15v30c0 16.732 5.7 32.045 15 44.537 13.682 18.378 35.38 30.463 60 30.463 41.353 0 75-33.647 75-75v-106z" fill="#f6edce"/><path d="m406 512c41.353 0 75-33.647 75-75v-106h-30v106c0 24.814-20.186 45-45 45s-45-20.186-45-45v-30h-15v74.537c13.682 18.378 35.38 30.463 60 30.463z" fill="#f6edce"/><path d="m361 1.518-15 28.482-15-28.482c-34.191 6.969-60 37.266-60 73.482v347h75 75v-347c0-36.216-25.809-66.513-60-73.482z" fill="#f6edce"/><path d="m421 75c0-36.216-25.809-66.513-60-73.482l-15 28.482v392h75z" fill="#f6edce"/><g fill="#fff9e5"><path d="m331 181v30h15 15v-30h-15z"/><path d="m331 241v30h15 15v-30h-15z"/><path d="m346 0c-5.136 0-10.151.529-15 1.518v149.482h15 15v-149.482c-4.849-.989-9.864-1.518-15-1.518z"/></g><g fill="#f6edce"><path d="m361 1.518c-4.849-.989-9.864-1.518-15-1.518v151h15z"/><path d="m346 181h15v30h-15z"/><path d="m346 241h15v30h-15z"/></g><path d="m181 510.482-15-28.482-15 28.482c-34.191-6.969-60-37.266-60-73.482v-347h75 75v347c0 36.216-25.809 66.513-60 73.482z" fill="#f6edce"/><path d="m241 437c0 36.216-25.809 66.513-60 73.482l-15-28.482v-392h75z" fill="#f6edce"/><g fill="#f6edce"><path d="m151 331v-30h15 15v30h-15z"/><path d="m151 271v-30h15 15v30h-15z"/><path d="m166 512c-5.136 0-10.151-.529-15-1.518v-149.482h15 15v149.482c-4.849.989-9.864 1.518-15 1.518z"/></g><path d="m181 510.482c-4.849.989-9.864 1.518-15 1.518v-151h15z" fill="#fff9e5"/><path d="m166 301h15v30h-15z" fill="#fff9e5"/><path d="m166 241h15v30h-15z" fill="#fff9e5"/></g></svg>