<svg id="Capa_1" enable-background="new 0 0 512 512" height="512" viewBox="0 0 512 512" width="512" xmlns="http://www.w3.org/2000/svg"><g><g><path d="m449.152 179.925c-1.359 3.179-3.231 6.127-5.584 8.72l-139.85 154.71-.01.01-50.89 25.91-65.288 102.596-18.581 20.557-21.655-21.655-127.722-127.721 167.957-151.834 79.624-31.735 36.565-73.298 19.637-17.755c2.593-2.342 5.552-4.224 8.731-5.573l96.625 96.625z" fill="#f6edce"/></g><g><path d="m449.152 179.925c-1.359 3.179-3.231 6.127-5.584 8.72l-139.85 154.71-.01.01-50.89 25.91-65.288 102.596-18.581 20.557-21.655-21.655 281.417-311.29z" fill="#fff9e5"/></g><g><path d="m187.528 471.875 116.186-128.521v-257.173l-116.186 105.036z" fill="#fff9e5"/></g><g><path d="m303.714 297.75-116.186 128.521v45.604l116.186-128.521z" fill="#fff9e5"/></g><g><path d="m19.569 343.057-16.506 16.506c-4.083 4.083-4.083 10.704 0 14.787l134.587 134.588c4.083 4.083 10.704 4.083 14.787 0l16.507-16.506z" fill="#f6edce"/></g><g><path d="m147.291 470.779-23.901 23.9 14.26 14.26c4.083 4.083 10.704 4.083 14.787 0l16.507-16.506z" fill="#f6edce"/></g><g><path d="m457.831 113.92 52.088-69.676c3.112-4.163 2.694-9.979-.981-13.654l-27.527-27.527c-3.675-3.675-9.492-4.093-13.654-.981l-69.676 52.088z" fill="#f6edce"/></g><g><path d="m457.831 113.916-6.357 57.258c-.345 3.032-1.14 5.981-2.321 8.752l-20.442-20.442-96.625-96.625c2.771-1.192 5.709-1.987 8.741-2.332.031 0 .063-.01.094-.01l57.164-6.347 38.092 38.102z" fill="#fff9e5"/></g><g><path d="m457.831 113.916-6.357 57.258c-.345 3.032-1.14 5.981-2.321 8.752l-20.442-20.442 7.466-67.212z" fill="#fff9e5"/></g></g></svg>